<?xml version="1.0"?>
<svg xmlns="http://www.w3.org/2000/svg" height="512px" viewBox="0 -11 512 512" width="512px"><g><path d="m450.808594 282.925781-11.449219-58.261719c-3.136719-16.355468-8.550781-28.84375-16.542969-38.171874-10.308594-12.03125-24.765625-18.390626-41.816406-18.390626h-47v-80.101562c0-11.042969-8.953125-20-20-20h-44c-11.046875 0-20 8.957031-20 20 0 11.046875 8.953125 20 20 20h24v174.101562h-194c-11.046875 0-20 8.953126-20 20 0 11.046876 8.953125 19.898438 20 19.898438h337.851562c18.914063 2.164062 34.148438 17.617188 34.148438 37.101562v52h-43.441406c-8.253906-23.277343-30.484375-40-56.558594-40s-48.304688 16.722657-56.558594 40h-123.882812c-8.253906-23.277343-30.484375-40-56.558594-40-26.058594 0-48.277344 16.703126-56.546875 39.960938-21.339844-.816406-38.453125-18.425781-38.453125-39.960938v-174.101562c0-11.042969-8.953125-20-20-20s-20 8.957031-20 20v174.101562c0 43.585938 35.039062 79.117188 78.425781 79.960938 8.246094 23.300781 30.488281 40.039062 56.574219 40.039062 26.074219 0 48.304688-16.722656 56.558594-40h123.882812c8.253906 23.277344 30.484375 40 56.558594 40s48.304688-16.722656 56.558594-40h63.441406c11.046875 0 20-8.953124 20-20v-72c0-37.238281-26.234375-68.46875-61.191406-76.175781zm-116.808594-74.824219h47c6.105469 0 14.464844 0 19.082031 24.136719.003907.03125.011719.0625.019531.097657l9.78125 49.765624h-75.882812zm-199 243c-11.027344 0-20-8.972656-20-20 0-11.027343 8.972656-20 20-20s20 8.972657 20 20c0 11.027344-8.972656 20-20 20zm237 0c-11.027344 0-20-8.972656-20-20 0-11.027343 8.972656-20 20-20s20 8.972657 20 20c0 11.027344-8.972656 20-20 20zm-365.8125-336.617187c-7.96875-7.652344-8.222656-20.3125-.574219-28.277344 7.648438-7.96875 20.308594-8.226562 28.277344-.574219l63.820313 61.28125c3.101562 2.949219 6.710937 3.191407 8.570312 3.0625 1.808594-.121093 5.183594-.796874 7.875-3.917968l98.582031-137.699219c6.429688-8.980469 18.921875-11.050781 27.902344-4.621094 8.980469 6.429688 11.050781 18.925781 4.621094 27.90625l-98.980469 138.257813c-.21875.304687-.441406.597656-.671875.886718-8.988281 11.183594-22.351563 18.144532-36.667969 19.097657-1.132812.078125-2.261718.113281-3.390625.113281-13.140625 0-25.914062-5.066406-35.480469-14.175781zm0 0" data-original="#000000" class="active-path" data-old_color="#000000" fill="#51FF00"/></g> </svg>
