<?xml version="1.0"?>
<svg xmlns="http://www.w3.org/2000/svg" height="512px" viewBox="0 0 512 512" width="512px" class=""><g><path d="m342 192.378906v-11.953125c0-19.535156-15.84375-35.425781-35.3125-35.425781h-103.375c-19.46875 0-35.3125 15.890625-35.3125 35.425781v11.953125c0 25.542969 24.835938 46.570313 42.972656 61.925782.660156.558593 1.308594 1.109374 1.941406 1.644531-.667968.570312-1.355468 1.152343-2.058593 1.746093-18.132813 15.355469-42.96875 36.382813-42.96875 61.925782v11.953125c0 1.105469.085937 2.183593.257812 3.234375 1.636719 18.023437 16.785157 32.191406 35.167969 32.191406h103.375c19.46875 0 35.3125-15.890625 35.3125-35.425781v-11.953125c0-25.546875-24.839844-46.574219-42.972656-61.925782-.683594-.578124-1.351563-1.144531-2-1.695312.648437-.554688 1.316406-1.117188 2-1.695312 18.132812-15.351563 42.972656-36.378907 42.972656-61.925782zm-40 127.242188v7.378906h-94.113281v-7.339844c0-.035156.328125-3.683594 7.8125-12.023437 6.101562-6.796875 14.019531-13.496094 21.003906-19.410157 1.8125-1.535156 3.546875-3.003906 5.183594-4.417968.484375-.351563.953125-.726563 1.410156-1.125 6.265625-5.492188 10.367187-12.917969 11.703125-20.941406 1.335938 8.023437 5.4375 15.445312 11.707031 20.941406 2 1.753906 4.171875 3.59375 6.472657 5.539062 6.984374 5.914063 14.902343 12.617188 21.003906 19.414063 7.488281 8.339843 7.8125 11.984375 7.816406 11.984375zm-7.816406-115.257813c-6.101563 6.796875-14.019532 13.5-21.003906 19.414063-2.300782 1.945312-4.472657 3.785156-6.476563 5.542968-6.265625 5.492188-10.367187 12.914063-11.703125 20.9375-1.335938-8.027343-5.4375-15.449218-11.703125-20.941406-2.003906-1.753906-4.179687-3.59375-6.480469-5.542968-6.984375-5.914063-14.902344-12.613282-21-19.410157-7.488281-8.339843-7.8125-11.984375-7.816406-11.984375v-7.378906h94v7.339844c-.003906.035156-.328125 3.679687-7.816406 12.023437zm-294.183594-70.363281v-48c0-11.046875 8.953125-20 20-20s20 8.953125 20 20v32.535156c19.679688-30.890625 45.8125-57.3125 76.84375-77.445312 41.4375-26.878906 89.554688-41.089844 139.15625-41.089844 68.378906 0 132.667969 26.628906 181.019531 74.980469 48.351563 48.351562 74.980469 112.640625 74.980469 181.019531 0 11.046875-8.953125 20-20 20s-20-8.953125-20-20c0-119.101562-96.898438-216-216-216-75.667969 0-145.871094 40.15625-184.726562 104h26.726562c11.046875 0 20 8.953125 20 20s-8.953125 20-20 20h-48c-27.570312 0-50-22.429688-50-50zm512 244v47c0 11.046875-8.953125 20-20 20s-20-8.953125-20-20v-33.105469c-19.789062 31.570313-46.289062 58.542969-77.84375 79.015625-41.4375 26.878906-89.554688 41.089844-139.15625 41.089844-68.339844 0-132.464844-26.644531-180.5625-75.023438-48-48.285156-74.4375-112.554687-74.4375-180.976562 0-11.046875 8.953125-20 20-20s20 8.953125 20 20c0 119.101562 96.449219 216 215 216 75.664062 0 145.871094-40.15625 184.726562-104h-26.726562c-11.046875 0-20-8.953125-20-20s8.953125-20 20-20h49c27.570312 0 50 22.429688 50 50zm0 0" data-original="#000000" class="active-path" data-old_color="#000000" fill="#FF8A10"/></g> </svg>
