<?xml version="1.0"?>
<svg xmlns="http://www.w3.org/2000/svg" height="512px" viewBox="0 0 512 512" width="512px" class=""><g><path d="m68 283.519531v-40.878906h91.019531l40 40.878906zm401.539062 157.378907 42.101563 42.101562-28.28125 28.285156-483-483 28.28125-28.285156 67.523437 67.519531h355.835938c33.085938 0 60 26.917969 60 60v256c0 26.984375-17.90625 49.859375-42.460938 57.378907zm-333.375-333.378907 46.121094 46.121094h289.714844v-26.121094c0-11.027343-8.972656-20-20-20zm335.835938 276v-170h-229.835938l30.121094 30.121094h60.714844v39.878906h-20.839844l120 120h19.839844c11.027344 0 20-8.972656 20-20zm-412 20.121094c-11.027344 0-20-9.09375-20-20.121094v-170h88.453125l-60-59.878906h-28.453125v-26.121094c0-.78125.054688-1.546875.144531-2.308593l-30.40625-30.402344c-6.148437 9.417968-9.738281 20.648437-9.738281 32.710937v256c0 33.085938 26.914062 60 60 60h298.449219l-40-39.878906zm0 0" data-original="#000000" class="active-path" data-old_color="#000000" fill="#FF0000"/></g> </svg>
