<?xml version="1.0"?>
<svg xmlns="http://www.w3.org/2000/svg" height="512px" viewBox="0 -12 512 512" width="512px" class=""><g><path d="m450.808594 279.824219-11.449219-58.261719c-3.136719-16.351562-8.550781-28.839844-16.542969-38.171875-10.308594-12.03125-24.765625-18.390625-41.816406-18.390625h-47v-80.101562c0-11.046876-8.953125-20-20-20s-20 8.953124-20 20v194.101562h-194c-11.046875 0-20 8.953125-20 20s8.953125 20 20 20h338c18.914062 2.164062 34 17.515625 34 37v52h-43.441406c-8.253906-23.277344-30.484375-40-56.558594-40s-48.304688 16.722656-56.558594 40h-123.882812c-8.253906-23.277344-30.484375-40-56.558594-40-26.058594 0-48.277344 16.703125-56.546875 39.960938-21.339844-.816407-38.453125-18.421876-38.453125-39.960938v-203.101562c0-11.046876-8.953125-20-20-20s-20 8.953124-20 20v203.101562c0 43.585938 35.039062 79.117188 78.425781 79.960938 8.246094 23.296874 30.488281 40.039062 56.574219 40.039062 26.074219 0 48.304688-16.722656 56.558594-40h123.882812c8.253906 23.277344 30.484375 40 56.558594 40s48.304688-16.722656 56.558594-40h63.441406c11.046875 0 20-8.953125 20-20v-72c0-37.238281-26.234375-68.46875-61.191406-76.175781zm-116.808594-74.824219h47c6.105469 0 14.464844 0 19.082031 24.136719.003907.03125.011719.0625.019531.097656l9.78125 49.765625h-75.882812zm-199 243c-11.027344 0-20-8.972656-20-20s8.972656-20 20-20 20 8.972656 20 20-8.972656 20-20 20zm237 0c-11.027344 0-20-8.972656-20-20s8.972656-20 20-20 20 8.972656 20 20-8.972656 20-20 20zm-371.101562-363c0-11.046875 8.953124-20 20-20h163.300781l-31.230469-30.746094c-7.871094-7.75-7.972656-20.414062-.222656-28.285156s20.414062-7.96875 28.285156-.222656l45.144531 44.445312c9.558594 9.414063 14.824219 21.953125 14.824219 35.304688 0 13.355468-5.265625 25.890625-14.824219 35.304687l-44.136719 43.453125c-3.894531 3.835938-8.964843 5.746094-14.03125 5.746094-5.167968 0-10.335937-1.992188-14.25-5.96875-7.75-7.871094-7.652343-20.535156.21875-28.28125l31.230469-30.75h-164.308593c-11.042969 0-20-8.953125-20-20zm0 0" data-original="#000000" class="active-path" data-old_color="#000000" fill="#F8FF00"/></g> </svg>
